<svg width="100" height="25" viewBox="0 0 100 25" fill="none" xmlns="http://www.w3.org/2000/svg">
<g filter="url(#filter0_d_107_2)">
<path d="M11.96 11.92L10.28 8.2L8.4 11.92H11.96ZM4.42 15.64C4.59333 15.6133 4.72667 15.5267 4.82 15.38C4.92667 15.2333 5.02667 15.0667 5.12 14.88L8.82 7.1C8.91333 6.92667 8.99333 6.76667 9.06 6.62C9.14 6.47333 9.18 6.34667 9.18 6.24C9.18 6.10667 9.13333 6.01333 9.04 5.96C8.94667 5.90667 8.84667 5.86667 8.74 5.84V5.48H12.12V5.84C12.0267 5.86667 11.9333 5.90667 11.84 5.96C11.7467 6 11.7 6.09333 11.7 6.24C11.7 6.34667 11.72 6.45333 11.76 6.56C11.8133 6.66667 11.8867 6.80667 11.98 6.98L16.14 15.12C16.2067 15.2667 16.2933 15.3733 16.4 15.44C16.52 15.5067 16.6533 15.5733 16.8 15.64V16H13.28V15.64C13.3333 15.64 13.4 15.62 13.48 15.58C13.56 15.54 13.6 15.48 13.6 15.4C13.6 15.2667 13.5467 15.0933 13.44 14.88L12.68 13.4H7.8L7.08 14.82C6.94667 15.1 6.88 15.3 6.88 15.42C6.88 15.5667 7.00667 15.64 7.26 15.64V16H4.42V15.64ZM24.6798 10.68C24.9998 10.68 25.2998 10.6133 25.5798 10.48C25.8598 10.3467 25.9998 10.0733 25.9998 9.66C25.9998 9.44667 25.9598 9.28 25.8798 9.16C25.7998 9.02667 25.6998 8.92667 25.5798 8.86C25.4598 8.78 25.3198 8.73333 25.1598 8.72C24.9998 8.69333 24.8398 8.68 24.6798 8.68H21.1198V10.68H24.6798ZM24.6398 14.52C25.2532 14.52 25.6732 14.42 25.8998 14.22C26.1265 14.02 26.2398 13.74 26.2398 13.38C26.2398 12.9667 26.0932 12.66 25.7998 12.46C25.5065 12.26 25.0132 12.16 24.3198 12.16H21.1198V14.52H24.6398ZM19.1998 7.86C19.1998 7.75333 19.1465 7.68 19.0398 7.64C18.9465 7.58667 18.8465 7.56 18.7398 7.56V7.2H24.9598C25.4665 7.2 25.8998 7.26 26.2598 7.38C26.6332 7.5 26.9398 7.66667 27.1798 7.88C27.4332 8.08 27.6198 8.31333 27.7398 8.58C27.8598 8.84667 27.9198 9.12667 27.9198 9.42C27.9198 9.66 27.8798 9.88667 27.7998 10.1C27.7198 10.3 27.6132 10.4867 27.4798 10.66C27.3598 10.82 27.2198 10.9667 27.0598 11.1C26.9132 11.2333 26.7598 11.34 26.5998 11.42V11.44C26.7865 11.52 26.9732 11.6267 27.1598 11.76C27.3465 11.8933 27.5132 12.0533 27.6598 12.24C27.8065 12.4267 27.9265 12.64 28.0198 12.88C28.1132 13.12 28.1598 13.38 28.1598 13.66C28.1598 13.98 28.0998 14.28 27.9798 14.56C27.8598 14.84 27.6665 15.0867 27.3998 15.3C27.1465 15.5133 26.8065 15.6867 26.3798 15.82C25.9665 15.94 25.4665 16 24.8798 16H18.7398V15.64C18.8465 15.64 18.9465 15.62 19.0398 15.58C19.1465 15.5267 19.1998 15.4467 19.1998 15.34V7.86ZM35.6664 8.56C35.2397 8.56 34.8197 8.63333 34.4064 8.78C34.0064 8.91333 33.6464 9.11333 33.3264 9.38C33.0064 9.63333 32.7464 9.94667 32.5464 10.32C32.3597 10.6933 32.2664 11.12 32.2664 11.6C32.2664 12.08 32.3597 12.5067 32.5464 12.88C32.7464 13.2533 33.0064 13.5733 33.3264 13.84C33.6464 14.0933 34.0064 14.2933 34.4064 14.44C34.8197 14.5733 35.2397 14.64 35.6664 14.64C36.0931 14.64 36.5064 14.5733 36.9064 14.44C37.3197 14.2933 37.6864 14.0933 38.0064 13.84C38.3264 13.5733 38.5797 13.2533 38.7664 12.88C38.9664 12.5067 39.0664 12.08 39.0664 11.6C39.0664 11.12 38.9664 10.6933 38.7664 10.32C38.5797 9.94667 38.3264 9.63333 38.0064 9.38C37.6864 9.11333 37.3197 8.91333 36.9064 8.78C36.5064 8.63333 36.0931 8.56 35.6664 8.56ZM35.6664 7.08C36.3997 7.08 37.0864 7.17333 37.7264 7.36C38.3797 7.54667 38.9464 7.82667 39.4264 8.2C39.9064 8.57333 40.2864 9.04667 40.5664 9.62C40.8464 10.18 40.9864 10.84 40.9864 11.6C40.9864 12.36 40.8464 13.0267 40.5664 13.6C40.2864 14.16 39.9064 14.6267 39.4264 15C38.9464 15.3733 38.3797 15.6467 37.7264 15.82C37.0864 15.98 36.3997 16.06 35.6664 16.06C34.9331 16.06 34.2397 15.98 33.5864 15.82C32.9464 15.6467 32.3864 15.3733 31.9064 15C31.4264 14.6267 31.0464 14.16 30.7664 13.6C30.4864 13.0267 30.3464 12.36 30.3464 11.6C30.3464 10.84 30.4864 10.18 30.7664 9.62C31.0464 9.04667 31.4264 8.57333 31.9064 8.2C32.3864 7.82667 32.9464 7.54667 33.5864 7.36C34.2397 7.17333 34.9331 7.08 35.6664 7.08ZM46.133 7.56C45.8396 7.56 45.693 7.66 45.693 7.86V12.44C45.693 13.08 45.9263 13.5933 46.393 13.98C46.8596 14.3667 47.573 14.56 48.533 14.56C49.493 14.56 50.2063 14.3667 50.673 13.98C51.1396 13.5933 51.373 13.08 51.373 12.44V7.86C51.373 7.66 51.2063 7.56 50.873 7.56V7.2H53.653V7.56C53.3596 7.56 53.213 7.66 53.213 7.86V12.92C53.213 13.3333 53.1196 13.7333 52.933 14.12C52.7463 14.4933 52.4596 14.8267 52.073 15.12C51.6996 15.4133 51.213 15.6467 50.613 15.82C50.0263 15.98 49.333 16.06 48.533 16.06C47.733 16.06 47.033 15.98 46.433 15.82C45.8463 15.6467 45.3596 15.4133 44.973 15.12C44.5996 14.8267 44.3196 14.4933 44.133 14.12C43.9463 13.7333 43.853 13.3333 43.853 12.92V7.86C43.853 7.75333 43.813 7.68 43.733 7.64C43.653 7.58667 43.4996 7.56 43.273 7.56V7.2H46.133V7.56ZM58.8728 15.64C58.9395 15.64 59.0061 15.62 59.0728 15.58C59.1395 15.5267 59.1728 15.4467 59.1728 15.34V8.68H56.5728C56.4661 8.68 56.3661 8.70667 56.2728 8.76C56.1795 8.81333 56.1328 8.9 56.1328 9.02H55.7728V6.72H56.1328C56.1328 6.90667 56.1795 7.03333 56.2728 7.1C56.3661 7.16667 56.4661 7.2 56.5728 7.2H63.6928C63.7995 7.2 63.8995 7.16667 63.9928 7.1C64.0861 7.03333 64.1328 6.90667 64.1328 6.72H64.4928V9.02H64.1328C64.1328 8.9 64.0861 8.81333 63.9928 8.76C63.8995 8.70667 63.7995 8.68 63.6928 8.68H61.0928V15.34C61.0928 15.54 61.2128 15.64 61.4528 15.64V16H58.8728V15.64ZM75.8266 5.84C75.5332 5.84 75.3866 5.96 75.3866 6.2V12.2C75.3866 13.04 75.6532 13.62 76.1866 13.94C76.7332 14.2467 77.5266 14.4 78.5666 14.4C79.6066 14.4 80.3932 14.2467 80.9266 13.94C81.4732 13.62 81.7466 13.04 81.7466 12.2V6.2C81.7466 5.96 81.5466 5.84 81.1466 5.84V5.48H84.3466V5.84C84.0266 5.84 83.8666 5.96 83.8666 6.2V12.1C83.8666 12.8867 83.7532 13.54 83.5266 14.06C83.2999 14.5667 82.9599 14.9733 82.5066 15.28C82.0532 15.5867 81.4866 15.7933 80.8066 15.9C80.1399 16.0067 79.3666 16.06 78.4866 16.06C77.6066 16.06 76.8266 16.0067 76.1466 15.9C75.4799 15.7933 74.9199 15.5867 74.4666 15.28C74.0132 14.9733 73.6732 14.5667 73.4466 14.06C73.2199 13.54 73.1066 12.8867 73.1066 12.1V6.2C73.1066 5.96 72.9199 5.84 72.5466 5.84V5.48H75.8266V5.84ZM87.8802 12.94C87.8802 12.9933 87.8735 13.0533 87.8602 13.12C87.8602 13.1733 87.8602 13.2333 87.8602 13.3C87.8602 13.5 87.9868 13.6867 88.2402 13.86C88.4935 14.02 88.7935 14.16 89.1402 14.28C89.5002 14.3867 89.8535 14.4733 90.2002 14.54C90.5602 14.6067 90.8402 14.64 91.0402 14.64C91.2268 14.64 91.4535 14.6267 91.7202 14.6C92.0002 14.5733 92.2735 14.52 92.5402 14.44C92.8068 14.3467 93.0335 14.2267 93.2202 14.08C93.4068 13.92 93.5002 13.7133 93.5002 13.46C93.5002 13.1667 93.3335 12.9533 93.0002 12.82C92.6802 12.6867 92.2735 12.5867 91.7802 12.52C91.2868 12.44 90.7535 12.3667 90.1802 12.3C89.6068 12.22 89.0735 12.1 88.5802 11.94C88.0868 11.7667 87.6735 11.5267 87.3402 11.22C87.0202 10.9 86.8602 10.4533 86.8602 9.88C86.8602 9.02667 87.2135 8.34667 87.9202 7.84C88.6268 7.33333 89.6202 7.08 90.9002 7.08C91.5268 7.08 92.0602 7.13333 92.5002 7.24C92.9535 7.33333 93.3335 7.44 93.6402 7.56C93.9468 7.68 94.1935 7.79333 94.3802 7.9C94.5802 7.99333 94.7268 8.04 94.8202 8.04C94.9268 8.04 95.0068 8.02667 95.0602 8C95.1135 7.96 95.1802 7.92 95.2602 7.88L95.4802 8.1L94.4802 9.98L94.1202 9.86C94.1068 9.78 94.0935 9.7 94.0802 9.62C94.0668 9.54 94.0068 9.46 93.9002 9.38C93.6335 9.15333 93.2202 8.96 92.6602 8.8C92.1002 8.64 91.4735 8.56 90.7802 8.56C90.5135 8.56 90.2602 8.58 90.0202 8.62C89.7802 8.64667 89.5668 8.7 89.3802 8.78C89.1935 8.86 89.0468 8.96667 88.9402 9.1C88.8335 9.22 88.7802 9.37333 88.7802 9.56C88.7802 9.85333 88.9402 10.0667 89.2602 10.2C89.5935 10.32 90.0068 10.42 90.5002 10.5C90.9935 10.5667 91.5268 10.64 92.1002 10.72C92.6735 10.7867 93.2068 10.9067 93.7002 11.08C94.1935 11.2533 94.6002 11.5067 94.9202 11.84C95.2535 12.1733 95.4202 12.6333 95.4202 13.22C95.4202 13.8067 95.2735 14.2867 94.9802 14.66C94.7002 15.0333 94.3468 15.3267 93.9202 15.54C93.4935 15.7533 93.0202 15.8933 92.5002 15.96C91.9935 16.0267 91.5135 16.06 91.0602 16.06C90.6068 16.06 90.1535 16.02 89.7002 15.94C89.2602 15.8467 88.8535 15.7467 88.4802 15.64C88.1202 15.52 87.8135 15.4133 87.5602 15.32C87.3068 15.2133 87.1535 15.16 87.1002 15.16C87.0068 15.16 86.9268 15.2 86.8602 15.28L86.5802 15.08L87.5002 12.84L87.8802 12.94Z" fill="white"/>
</g>
<rect x="5" y="20" width="90" height="1" fill="#D9D9D9"/>
<defs>
<filter id="filter0_d_107_2" x="0.419983" y="5.48001" width="99.0602" height="18.58" filterUnits="userSpaceOnUse" color-interpolation-filters="sRGB">
<feFlood flood-opacity="0" result="BackgroundImageFix"/>
<feColorMatrix in="SourceAlpha" type="matrix" values="0 0 0 0 0 0 0 0 0 0 0 0 0 0 0 0 0 0 127 0" result="hardAlpha"/>
<feOffset dy="4"/>
<feGaussianBlur stdDeviation="2"/>
<feComposite in2="hardAlpha" operator="out"/>
<feColorMatrix type="matrix" values="0 0 0 0 0 0 0 0 0 0 0 0 0 0 0 0 0 0 0.25 0"/>
<feBlend mode="normal" in2="BackgroundImageFix" result="effect1_dropShadow_107_2"/>
<feBlend mode="normal" in="SourceGraphic" in2="effect1_dropShadow_107_2" result="shape"/>
</filter>
</defs>
</svg>
