<svg width="151" height="23" viewBox="0 0 151 23" fill="none" xmlns="http://www.w3.org/2000/svg">
<path d="M1.38047 6.83403C1.46994 6.32275 1.8598 5.70282 2.55003 4.97424L4.52487 3.01857C5.18953 2.37947 5.84142 1.94488 6.48053 1.7148C7.23467 1.43359 7.82904 1.51668 8.26363 1.96405C8.49371 2.18135 8.77492 2.67985 9.10725 3.45956C9.2862 3.8558 9.42041 4.14979 9.50989 4.34152C9.67605 4.64829 9.84861 4.89115 10.0276 5.0701C10.4749 5.47913 11.031 5.58778 11.6956 5.39605L9.68244 7.39005C9.03056 7.569 8.48732 7.44118 8.05273 7.00659C7.87378 6.82764 7.70122 6.58478 7.53505 6.27801C7.43279 6.08628 7.29858 5.79868 7.13241 5.41522C7.13241 5.40244 7.12602 5.38965 7.11324 5.37687L6.76813 4.5716C6.61474 4.29039 6.46775 4.07949 6.32714 3.93888C5.72638 3.33813 4.85081 3.38925 3.70042 4.09227C3.52147 4.38626 3.41921 4.63551 3.39365 4.84002L1.38047 6.83403ZM3.45117 4.87837V15.3469C3.45117 15.9093 3.47673 16.3887 3.52786 16.7849C3.65568 17.8586 4.00719 18.6255 4.58239 19.0857C5.57939 19.8654 6.62752 20.1977 7.72678 20.0827C8.2125 20.0316 8.76213 19.891 9.37567 19.6609C9.77192 19.5331 10.4174 19.2838 11.3122 18.9131L8.72379 20.9263C7.88017 21.2842 7.26024 21.5335 6.86399 21.6741C6.23767 21.8914 5.69443 22.0192 5.23427 22.0575C4.13501 22.1598 3.08049 21.8147 2.0707 21.0222C1.48272 20.562 1.11204 19.7951 0.958658 18.7214C0.920312 18.3251 0.901138 17.8458 0.901138 17.2834V6.83403L3.45117 4.87837ZM15.7054 13.5063C15.7054 15.1935 15.7054 16.8744 15.7054 18.5488C16.2422 18.7917 16.6577 19.0665 16.9517 19.3733C17.2584 19.68 17.5716 19.9996 17.8911 20.3319L20.9588 19.0665L20.8822 19.891L17.872 21.0989L16.1847 21.9808C15.6351 21.5079 15.0919 21.118 14.555 20.8113C14.0309 20.4917 13.3407 20.2297 12.4843 20.0252L13.1937 19.5267C13.1809 17.9289 13.1745 16.3311 13.1745 14.7334C13.1873 13.1356 13.2704 11.5698 13.4238 10.0359L15.9355 8.54044C15.7821 10.151 15.7054 11.8063 15.7054 13.5063ZM20.9013 19.7951L20.863 9.63331C20.1727 9.63331 19.6359 9.49271 19.2524 9.2115C18.869 8.91752 18.4472 8.52127 17.987 8.02277L15.9355 9.2115L15.9547 8.54044L17.5844 7.58179L20.0577 6.10545C20.3517 6.425 20.6073 6.70621 20.8246 6.94907C21.0547 7.19193 21.2912 7.40284 21.534 7.58179C21.7897 7.76073 22.0581 7.90134 22.3393 8.00359C22.6333 8.10585 22.9784 8.15698 23.3747 8.15698L23.3171 18.568L20.9013 19.7951ZM27.9021 2.32834L27.9405 2.30917L27.9596 19.2391C28.0491 19.4564 28.1641 19.6737 28.3047 19.891C28.4454 20.0955 28.6115 20.2425 28.8033 20.3319L29.7044 19.8334C29.6916 19.8973 29.7044 19.9485 29.7427 19.9868C29.7939 20.0252 29.845 20.0635 29.8961 20.1019C29.96 20.1402 29.9984 20.1786 30.0112 20.2169C30.0367 20.2552 30.0239 20.2936 29.9728 20.3319L27.0968 21.9425C26.9179 22.032 26.707 22.0128 26.4641 21.885C26.2213 21.7444 25.9209 21.4632 25.563 21.0413C25.1923 20.6323 24.7705 20.3447 24.2976 20.1786L24.1825 19.6225C24.5915 19.5714 25.007 19.3413 25.4288 18.9323V3.72798L25.4479 3.70881V3.59377C24.7705 3.59377 24.2464 3.45316 23.8757 3.17196C23.5051 2.87797 23.096 2.48173 22.6487 1.98322L20.6355 3.17196L20.6547 2.5009L22.246 1.54224L24.6618 0.0467339C24.9431 0.366286 25.1923 0.647492 25.4096 0.890352C25.6397 1.13321 25.8761 1.35051 26.119 1.54224C26.3619 1.72119 26.6239 1.86179 26.9051 1.96405C27.1863 2.06631 27.5186 2.11744 27.9021 2.11744V2.32834ZM41.5693 2.5009L41.6076 2.48173L41.6268 19.2199C41.7163 19.4372 41.8313 19.6545 41.9719 19.8718C42.1125 20.0763 42.2787 20.2233 42.4704 20.3128L43.3715 19.8143C43.3588 19.8782 43.3715 19.9293 43.4099 19.9676C43.461 20.006 43.5121 20.0443 43.5633 20.0827C43.6272 20.121 43.6655 20.1594 43.6783 20.1977C43.7039 20.2361 43.6911 20.2744 43.64 20.3128L40.764 21.9233C40.585 22.0128 40.3741 21.9936 40.1313 21.8658C39.8884 21.7252 39.588 21.444 39.2301 21.0222C38.8595 20.6131 38.4376 20.3255 37.9647 20.1594L37.8497 19.6034C38.2587 19.5522 38.6741 19.3221 39.0959 18.9131V3.90054L39.1151 3.88136V3.76633C38.4376 3.76633 37.9136 3.62572 37.5429 3.34452C37.1722 3.05053 36.7632 2.65428 36.3158 2.15578L34.3026 3.34452L34.3218 2.67346L35.9132 1.7148L38.329 0.219292C38.6102 0.538845 38.8595 0.820052 39.0767 1.06291C39.3068 1.30577 39.5433 1.52307 39.7862 1.7148C40.029 1.89375 40.291 2.03435 40.5723 2.13661C40.8535 2.23886 41.1858 2.28999 41.5693 2.28999V2.5009ZM33.8616 13.3146C33.8616 15.0401 33.8616 16.7593 33.8616 18.4721C34.3985 18.715 34.8139 18.9962 35.1079 19.3158C35.4147 19.6353 35.7278 19.9613 36.0474 20.2936L39.1151 19.009L39.0384 19.8526L36.0282 21.0797L34.341 21.9808C33.7913 21.4951 33.2481 21.0925 32.7113 20.7729C32.1872 20.4534 31.497 20.1913 30.6406 19.9868L31.35 19.4691C31.3372 17.833 31.3308 16.2033 31.3308 14.58C31.3436 12.9439 31.4267 11.3397 31.58 9.76752L34.0917 8.23367C33.9383 9.88256 33.8616 11.5762 33.8616 13.3146ZM38.9042 9.63331C38.214 9.63331 37.6771 9.49271 37.2936 9.2115C36.9102 8.9303 36.4884 8.54044 36.0282 8.04194L33.9767 9.2115L33.9959 8.55962L35.6256 7.62013L38.0989 6.1438C38.3929 6.46335 38.6485 6.74456 38.8658 6.98742C39.0959 7.21749 39.3324 7.42201 39.5753 7.60096C39.8309 7.77991 40.0993 7.92051 40.3805 8.02277C40.6745 8.11224 41.0196 8.15698 41.4159 8.15698L41.3967 8.86639L38.9042 10.1702V9.63331ZM59.516 3.287L59.5544 3.26782L59.5735 19.2391C59.663 19.4564 59.778 19.6737 59.9186 19.891C60.0592 20.0955 60.2254 20.2425 60.4171 20.3319L61.3183 19.8334C61.3055 19.8973 61.3183 19.9485 61.3566 19.9868C61.4078 20.0252 61.4589 20.0635 61.51 20.1019C61.5739 20.1402 61.6123 20.1786 61.6251 20.2169C61.6506 20.2552 61.6378 20.2936 61.5867 20.3319L58.7107 21.9425C58.5318 22.032 58.3209 22.0128 58.078 21.885C57.8352 21.7444 57.5348 21.4632 57.1769 21.0413C56.8062 20.6323 56.3844 20.3447 55.9115 20.1786L55.7964 19.6225C56.2054 19.5714 56.6209 19.3413 57.0427 18.9323V4.68664L57.0618 4.66747V4.55243C56.3844 4.55243 55.8603 4.41182 55.4896 4.13062C55.119 3.83663 54.7099 3.44038 54.2626 2.94188L52.2494 4.13062L52.2686 3.45956L53.8599 2.5009L56.2757 1.00539C56.557 1.32494 56.8062 1.60615 57.0235 1.84901C57.2536 2.09187 57.49 2.30917 57.7329 2.5009C57.9758 2.67985 58.2378 2.82045 58.519 2.92271C58.8002 3.02496 59.1325 3.07609 59.516 3.07609V3.287ZM66.7251 3.09527L66.7635 3.07609L66.7826 19.0473C66.8721 19.2646 66.9871 19.4819 67.1278 19.6992C67.2684 19.9037 67.4345 20.0507 67.6263 20.1402L68.5274 19.6417C68.5146 19.7056 68.5274 19.7567 68.5657 19.7951C68.6169 19.8334 68.668 19.8718 68.7191 19.9101C68.783 19.9485 68.8214 19.9868 68.8342 20.0252C68.8597 20.0635 68.8469 20.1019 68.7958 20.1402L65.9198 21.7507C65.7409 21.8402 65.53 21.8211 65.2871 21.6932C65.0443 21.5526 64.7439 21.2714 64.386 20.8496C64.0153 20.4406 63.5935 20.153 63.1206 19.9868L63.0055 19.4308C63.4146 19.3797 63.83 19.1496 64.2518 18.7406V4.49491L64.271 4.47573V4.36069C63.5935 4.36069 63.0694 4.22009 62.6988 3.93888C62.3281 3.6449 61.919 3.24865 61.4717 2.75015L59.4585 3.93888L59.4777 3.26782L61.069 2.30917L63.4849 0.81366C63.7661 1.13321 64.0153 1.41442 64.2326 1.65728C64.4627 1.90014 64.6992 2.11743 64.942 2.30917C65.1849 2.48812 65.4469 2.62872 65.7281 2.73098C66.0093 2.83323 66.3417 2.88436 66.7251 2.88436V3.09527ZM73.8384 3.09527L73.8767 3.07609L73.8959 19.0473C73.9854 19.2646 74.1004 19.4819 74.241 19.6992C74.3816 19.9037 74.5478 20.0507 74.7395 20.1402L75.6406 19.6417C75.6279 19.7056 75.6406 19.7567 75.679 19.7951C75.7301 19.8334 75.7812 19.8718 75.8324 19.9101C75.8963 19.9485 75.9346 19.9868 75.9474 20.0252C75.973 20.0635 75.9602 20.1019 75.9091 20.1402L73.0331 21.7507C72.8541 21.8402 72.6432 21.8211 72.4004 21.6932C72.1575 21.5526 71.8571 21.2714 71.4992 20.8496C71.1286 20.4406 70.7067 20.153 70.2338 19.9868L70.1188 19.4308C70.5278 19.3797 70.9432 19.1496 71.365 18.7406V4.49491L71.3842 4.47573V4.36069C70.7067 4.36069 70.1827 4.22009 69.812 3.93888C69.4413 3.6449 69.0323 3.24865 68.5849 2.75015L66.5717 3.93888L66.5909 3.26782L68.1823 2.30917L70.5981 0.81366C70.8793 1.13321 71.1286 1.41442 71.3458 1.65728C71.5759 1.90014 71.8124 2.11743 72.0553 2.30917C72.2981 2.48812 72.5601 2.62872 72.8414 2.73098C73.1226 2.83323 73.4549 2.88436 73.8384 2.88436V3.09527ZM79.8488 9.19233C79.6699 10.6111 79.5804 12.0427 79.5804 13.4871V18.5488C80.1172 18.7917 80.5327 19.0665 80.8267 19.3733C81.1334 19.68 81.4466 19.9996 81.7661 20.3319L84.6613 19.1432C84.6613 18.1845 84.6677 17.2387 84.6805 16.3056C84.706 15.2319 84.7188 14.107 84.7188 12.9311C84.7316 11.7424 84.738 10.6431 84.738 9.63331C84.0605 9.63331 83.5237 9.49271 83.1274 9.2115C82.744 8.91752 82.3222 8.52127 81.862 8.02277L79.8488 9.19233ZM81.4594 7.58179L83.9327 6.10545C84.2267 6.425 84.4823 6.70621 84.6996 6.94907C84.9297 7.19193 85.1662 7.40284 85.409 7.58179C85.6647 7.76073 85.9331 7.90134 86.2143 8.00359C86.5083 8.10585 86.8534 8.15698 87.2497 8.15698L87.0963 18.0695C87.0579 18.5297 87.2113 18.9259 87.5564 19.2582C87.9143 19.5778 88.3745 19.7184 88.9369 19.68L89.5313 19.5075L89.7038 19.7951L86.5019 21.9617C86.3102 21.7827 86.1504 21.6293 86.0226 21.5015C85.9075 21.3737 85.7861 21.2395 85.6583 21.0989C85.5433 20.9583 85.409 20.8049 85.2557 20.6387C85.1023 20.4725 84.9041 20.2616 84.6613 20.006V19.9293L81.747 21.0989L80.0597 21.9808C79.5101 21.5079 78.9669 21.118 78.43 20.8113C77.9059 20.4917 77.2157 20.2297 76.3593 20.0252L77.0687 19.5267C77.0559 17.9289 77.0495 16.3311 77.0495 14.7334C77.0623 13.1356 77.1454 11.5698 77.2988 10.0359L79.9447 8.46375L81.4594 7.58179ZM95.32 8.67465L95.3392 8.73217L94.1121 9.36489V18.1654C94.0738 18.6255 94.2272 19.0218 94.5723 19.3541C94.9302 19.6737 95.3903 19.8143 95.9528 19.7759L96.5471 19.6034L96.7197 19.891L93.5178 22.0575C93.326 21.8786 93.1663 21.7252 93.0384 21.5974C92.9234 21.4695 92.802 21.3353 92.6741 21.1947C92.5591 21.0541 92.4249 20.9007 92.2715 20.7346C92.1181 20.5684 91.9072 20.3639 91.6388 20.121L91.217 19.8334V19.4691C91.4471 19.4819 91.626 19.4244 91.7538 19.2966V9.72918C91.4215 9.72918 91.1531 9.6397 90.9486 9.46075C90.7313 9.3585 90.5268 9.20511 90.335 9.0006L89.2997 9.59497L88.9162 9.15398L89.9324 8.55962L92.4057 7.08328C92.6997 7.40284 92.9617 7.68404 93.1918 7.9269C93.2557 8.00359 93.326 8.0739 93.4027 8.13781H93.3836C93.5369 8.27841 93.7606 8.44458 94.0546 8.63631L95.1858 8.06111V8.08029L95.6076 7.85021L98.081 6.39305C98.375 6.69982 98.6306 6.97463 98.8479 7.21749C99.078 7.46036 99.3145 7.67126 99.5573 7.85021C99.813 8.01638 100.081 8.15059 100.363 8.25285C100.657 8.3551 101.002 8.40623 101.398 8.40623L101.245 18.1462C101.206 18.5936 101.36 18.977 101.705 19.2966C102.063 19.6161 102.523 19.7567 103.085 19.7184L103.68 19.5458L103.852 19.8334L100.65 21.9617C100.458 21.7827 100.299 21.6357 100.171 21.5207C100.056 21.3928 99.9344 21.2586 99.8066 21.118C99.6915 20.9774 99.5573 20.824 99.4039 20.6579C99.2505 20.4917 99.0524 20.2872 98.8096 20.0443C98.8096 18.8173 98.816 17.603 98.8287 16.4014C98.8543 15.3533 98.8671 14.2477 98.8671 13.0845C98.8799 11.9213 98.8863 10.8476 98.8863 9.86339C98.196 9.86339 97.6592 9.72279 97.2757 9.44158C96.8922 9.14759 96.4704 8.76413 96.0103 8.29119L95.32 8.67465ZM110.059 22.6327C110.059 22.3515 110.046 22.1342 110.021 21.9808C109.995 21.8274 109.925 21.6677 109.81 21.5015C109.426 20.9391 108.819 20.7857 107.988 21.0413C106.851 21.4504 106.16 21.9553 105.917 22.556L105.611 22.4602C106.045 21.2459 106.672 20.4022 107.49 19.9293C108.538 19.2518 109.567 19.0026 110.577 19.1815C111.369 19.3861 111.848 19.6545 112.015 19.9868L112.686 19.6034L112.705 13.4871C112.59 13.0397 112.34 12.8161 111.957 12.8161L109.656 13.8706C108.953 14.3563 108.231 14.6631 107.49 14.7909C106.505 14.5225 105.815 14.0687 105.419 13.4296V9.09646L110.519 6.00959L110.596 6.16297C111.018 6.89155 111.599 7.39644 112.34 7.67765C113.082 7.94607 113.881 7.77352 114.737 7.15998L114.89 7.44757L113.242 8.77052C112.206 9.1412 111.484 9.34572 111.075 9.38406C110.666 9.40963 110.276 9.35211 109.905 9.2115C109.535 9.0709 109.196 8.86 108.889 8.57879C108.685 8.39984 108.499 8.20172 108.333 7.98442L107.835 8.32954L107.816 13.2954C108.416 13.4743 109.017 13.4679 109.618 13.2762L111.938 12.145C112.436 11.851 112.884 11.6401 113.28 11.5123C113.689 11.3717 114.162 11.4548 114.699 11.7615C115.069 12.1578 115.242 12.586 115.216 13.0461V19.5267L110.059 22.6327ZM118.092 19.4691C118.322 19.4819 118.501 19.4244 118.629 19.2966V8.77052C118.297 8.77052 118.028 8.68105 117.824 8.5021C117.606 8.39984 117.402 8.24645 117.21 8.04194L116.175 8.63631L115.791 8.19533L116.807 7.60096L119.281 6.12463C119.575 6.44418 119.837 6.72538 120.067 6.96824C120.131 7.04494 120.201 7.11524 120.278 7.17915H120.259C120.412 7.31975 120.636 7.48592 120.93 7.67765L120.987 8.40623V18.1654C120.949 18.6255 121.102 19.0218 121.447 19.3541C121.805 19.6737 122.265 19.8143 122.828 19.7759L123.422 19.6034L123.595 19.891L120.393 22.0575C120.201 21.8786 120.041 21.7252 119.913 21.5974C119.798 21.4695 119.677 21.3353 119.549 21.1947C119.434 21.0541 119.3 20.9007 119.147 20.7346C118.993 20.5684 118.782 20.3639 118.514 20.121L118.092 19.8334V19.4691ZM120.489 2.38586L118.533 3.70881L120.124 5.5686L121.888 4.13062L120.489 2.38586ZM127.393 13.5063C127.393 15.1935 127.393 16.8744 127.393 18.5488C127.93 18.7917 128.345 19.0665 128.639 19.3733C128.946 19.68 129.259 19.9996 129.579 20.3319L132.646 19.0665L132.57 19.891L129.559 21.0989L127.872 21.9808C127.323 21.5079 126.779 21.118 126.243 20.8113C125.718 20.4917 125.028 20.2297 124.172 20.0252L124.881 19.5267C124.868 17.9289 124.862 16.3311 124.862 14.7334C124.875 13.1356 124.958 11.5698 125.111 10.0359L127.623 8.54044C127.47 10.151 127.393 11.8063 127.393 13.5063ZM132.589 19.7951L132.55 9.63331C131.86 9.63331 131.323 9.49271 130.94 9.2115C130.556 8.91752 130.135 8.52127 129.675 8.02277L127.623 9.2115L127.642 8.54044L129.272 7.58179L131.745 6.10545C132.039 6.425 132.295 6.70621 132.512 6.94907C132.742 7.19193 132.979 7.40284 133.222 7.58179C133.477 7.76073 133.746 7.90134 134.027 8.00359C134.321 8.10585 134.666 8.15698 135.062 8.15698L135.005 18.568L132.589 19.7951ZM142.101 8.67465L142.12 8.73217L140.893 9.36489V18.1654C140.855 18.6255 141.008 19.0218 141.354 19.3541C141.711 19.6737 142.172 19.8143 142.734 19.7759L143.328 19.6034L143.501 19.891L140.299 22.0575C140.107 21.8786 139.948 21.7252 139.82 21.5974C139.705 21.4695 139.583 21.3353 139.455 21.1947C139.34 21.0541 139.206 20.9007 139.053 20.7346C138.899 20.5684 138.688 20.3639 138.42 20.121L137.998 19.8334V19.4691C138.228 19.4819 138.407 19.4244 138.535 19.2966V9.72918C138.203 9.72918 137.934 9.6397 137.73 9.46075C137.513 9.3585 137.308 9.20511 137.116 9.0006L136.081 9.59497L135.697 9.15398L136.714 8.55962L139.187 7.08328C139.481 7.40284 139.743 7.68404 139.973 7.9269C140.037 8.00359 140.107 8.0739 140.184 8.13781H140.165C140.318 8.27841 140.542 8.44458 140.836 8.63631L141.967 8.06111V8.08029L142.389 7.85021L144.862 6.39305C145.156 6.69982 145.412 6.97463 145.629 7.21749C145.859 7.46036 146.096 7.67126 146.339 7.85021C146.594 8.01638 146.863 8.15059 147.144 8.25285C147.438 8.3551 147.783 8.40623 148.179 8.40623L148.026 18.1462C147.987 18.5936 148.141 18.977 148.486 19.2966C148.844 19.6161 149.304 19.7567 149.866 19.7184L150.461 19.5458L150.633 19.8334L147.431 21.9617C147.24 21.7827 147.08 21.6357 146.952 21.5207C146.837 21.3928 146.716 21.2586 146.588 21.118C146.473 20.9774 146.339 20.824 146.185 20.6579C146.032 20.4917 145.834 20.2872 145.591 20.0443C145.591 18.8173 145.597 17.603 145.61 16.4014C145.636 15.3533 145.648 14.2477 145.648 13.0845C145.661 11.9213 145.668 10.8476 145.668 9.86339C144.977 9.86339 144.44 9.72279 144.057 9.44158C143.673 9.14759 143.252 8.76413 142.792 8.29119L142.101 8.67465Z" fill="white"/>
</svg>
