<svg width="90" height="25" viewBox="0 0 90 25" fill="none" xmlns="http://www.w3.org/2000/svg">
<g filter="url(#filter0_d_107_3)">
<path d="M27.48 16.38C27.48 16.18 27.4133 16.0667 27.28 16.04C27.16 16.0133 27 16 26.8 16H17.28V15.64C17.68 15.64 17.88 15.52 17.88 15.28V6.2C17.88 5.96 17.68 5.84 17.28 5.84V5.48H20.72V5.84C20.3467 5.84 20.16 5.96 20.16 6.2V14.16H26.8C27 14.16 27.16 14.1133 27.28 14.02C27.4133 13.9267 27.48 13.8 27.48 13.64H27.84V16.38H27.48ZM34.3266 8.56C33.8999 8.56 33.4799 8.63333 33.0666 8.78C32.6666 8.91333 32.3066 9.11333 31.9866 9.38C31.6666 9.63333 31.4066 9.94667 31.2066 10.32C31.0199 10.6933 30.9266 11.12 30.9266 11.6C30.9266 12.08 31.0199 12.5067 31.2066 12.88C31.4066 13.2533 31.6666 13.5733 31.9866 13.84C32.3066 14.0933 32.6666 14.2933 33.0666 14.44C33.4799 14.5733 33.8999 14.64 34.3266 14.64C34.7532 14.64 35.1666 14.5733 35.5666 14.44C35.9799 14.2933 36.3466 14.0933 36.6666 13.84C36.9866 13.5733 37.2399 13.2533 37.4266 12.88C37.6266 12.5067 37.7266 12.08 37.7266 11.6C37.7266 11.12 37.6266 10.6933 37.4266 10.32C37.2399 9.94667 36.9866 9.63333 36.6666 9.38C36.3466 9.11333 35.9799 8.91333 35.5666 8.78C35.1666 8.63333 34.7532 8.56 34.3266 8.56ZM34.3266 7.08C35.0599 7.08 35.7466 7.17333 36.3866 7.36C37.0399 7.54667 37.6066 7.82667 38.0866 8.2C38.5666 8.57333 38.9466 9.04667 39.2266 9.62C39.5066 10.18 39.6466 10.84 39.6466 11.6C39.6466 12.36 39.5066 13.0267 39.2266 13.6C38.9466 14.16 38.5666 14.6267 38.0866 15C37.6066 15.3733 37.0399 15.6467 36.3866 15.82C35.7466 15.98 35.0599 16.06 34.3266 16.06C33.5932 16.06 32.8999 15.98 32.2466 15.82C31.6066 15.6467 31.0466 15.3733 30.5666 15C30.0866 14.6267 29.7066 14.16 29.4266 13.6C29.1466 13.0267 29.0066 12.36 29.0066 11.6C29.0066 10.84 29.1466 10.18 29.4266 9.62C29.7066 9.04667 30.0866 8.57333 30.5666 8.2C31.0466 7.82667 31.6066 7.54667 32.2466 7.36C32.8999 7.17333 33.5932 7.08 34.3266 7.08ZM49.8731 10.1L49.6331 9.96C49.6598 9.82667 49.6731 9.75333 49.6731 9.74C49.6731 9.62 49.5865 9.49333 49.4131 9.36C49.2398 9.21333 49.0131 9.08 48.7331 8.96C48.4531 8.84 48.1331 8.74667 47.7731 8.68C47.4265 8.6 47.0731 8.56 46.7131 8.56C46.2198 8.56 45.7531 8.62 45.3131 8.74C44.8731 8.84667 44.4865 9.02667 44.1531 9.28C43.8198 9.52 43.5531 9.83333 43.3531 10.22C43.1531 10.6067 43.0531 11.08 43.0531 11.64C43.0531 12.2 43.1598 12.6733 43.3731 13.06C43.5865 13.4333 43.8598 13.74 44.1931 13.98C44.5398 14.2067 44.9198 14.3733 45.3331 14.48C45.7465 14.5867 46.1465 14.64 46.5331 14.64C47.1065 14.64 47.6465 14.6 48.1531 14.52C48.6731 14.44 49.1465 14.2867 49.5731 14.06V12.8H47.5131C47.3665 12.8 47.2398 12.8333 47.1331 12.9C47.0265 12.9533 46.9598 13.06 46.9331 13.22H46.5731V11.16H46.9331C46.9598 11.2933 47.0265 11.38 47.1331 11.42C47.2398 11.46 47.3665 11.48 47.5131 11.48H51.4331V11.84C51.3131 11.8933 51.2331 11.9533 51.1931 12.02C51.1531 12.0867 51.1331 12.1867 51.1331 12.32V14.22C51.1331 14.34 51.1465 14.4267 51.1731 14.48C51.2131 14.52 51.2998 14.5667 51.4331 14.62V14.86C51.3131 14.94 51.1198 15.0533 50.8531 15.2C50.5998 15.3333 50.2731 15.4667 49.8731 15.6C49.4865 15.7333 49.0331 15.8467 48.5131 15.94C47.9931 16.02 47.4131 16.06 46.7731 16.06C45.9065 16.06 45.1198 15.9667 44.4131 15.78C43.7198 15.58 43.1265 15.2867 42.6331 14.9C42.1531 14.5133 41.7798 14.0467 41.5131 13.5C41.2598 12.94 41.1331 12.3067 41.1331 11.6C41.1331 10.8933 41.2598 10.2667 41.5131 9.72C41.7798 9.16 42.1531 8.68667 42.6331 8.3C43.1265 7.9 43.7198 7.6 44.4131 7.4C45.1198 7.18667 45.9065 7.08 46.7731 7.08C47.2931 7.08 47.7531 7.12667 48.1531 7.22C48.5531 7.31333 48.8998 7.41333 49.1931 7.52C49.4998 7.62667 49.7465 7.72667 49.9331 7.82C50.1198 7.91333 50.2598 7.96 50.3531 7.96C50.4598 7.96 50.5398 7.95333 50.5931 7.94C50.6465 7.91333 50.7131 7.86667 50.7931 7.8L51.0331 7.92L49.8731 10.1ZM54.4797 15.64C54.693 15.64 54.8397 15.62 54.9197 15.58C54.9997 15.5267 55.0397 15.4467 55.0397 15.34V7.86C55.0397 7.75333 54.9997 7.68 54.9197 7.64C54.8397 7.58667 54.693 7.56 54.4797 7.56V7.2H57.5197V7.56C57.1464 7.56 56.9597 7.66 56.9597 7.86V15.34C56.9597 15.54 57.1464 15.64 57.5197 15.64V16H54.4797V15.64ZM60.9598 15.64C61.1998 15.64 61.3198 15.54 61.3198 15.34V7.86C61.3198 7.66 61.1998 7.56 60.9598 7.56V7.2H63.8998V7.56C63.8065 7.57333 63.7598 7.60667 63.7598 7.66C63.7598 7.72667 63.9065 7.90667 64.1998 8.2L68.9998 13.28V7.86C68.9998 7.66 68.8665 7.56 68.5998 7.56V7.2H71.0398V7.56C70.7998 7.56 70.6798 7.66 70.6798 7.86V15.34C70.6798 15.54 70.7998 15.64 71.0398 15.64V16H68.4398V15.64C68.5332 15.64 68.5798 15.6067 68.5798 15.54C68.5798 15.4867 68.5132 15.3933 68.3798 15.26C68.2598 15.1267 68.1198 14.9733 67.9598 14.8L62.9998 9.52V15.34C62.9998 15.54 63.1398 15.64 63.4198 15.64V16H60.9598V15.64Z" fill="white"/>
</g>
<rect y="21" width="90" height="1" fill="#D9D9D9"/>
<defs>
<filter id="filter0_d_107_3" x="13.28" y="5.48001" width="61.7598" height="18.9" filterUnits="userSpaceOnUse" color-interpolation-filters="sRGB">
<feFlood flood-opacity="0" result="BackgroundImageFix"/>
<feColorMatrix in="SourceAlpha" type="matrix" values="0 0 0 0 0 0 0 0 0 0 0 0 0 0 0 0 0 0 127 0" result="hardAlpha"/>
<feOffset dy="4"/>
<feGaussianBlur stdDeviation="2"/>
<feComposite in2="hardAlpha" operator="out"/>
<feColorMatrix type="matrix" values="0 0 0 0 0 0 0 0 0 0 0 0 0 0 0 0 0 0 0.25 0"/>
<feBlend mode="normal" in2="BackgroundImageFix" result="effect1_dropShadow_107_3"/>
<feBlend mode="normal" in="SourceGraphic" in2="effect1_dropShadow_107_3" result="shape"/>
</filter>
</defs>
</svg>
