<svg width="46" height="46" viewBox="0 0 46 46" fill="none" xmlns="http://www.w3.org/2000/svg">
<path d="M4.3125 5.75H6.969C7.9465 5.75 8.79942 6.40742 9.05242 7.35042L9.7865 10.1047M14.375 27.3125C12.85 27.3125 11.3875 27.9183 10.3091 28.9966C9.2308 30.075 8.625 31.5375 8.625 33.0625H38.8125M14.375 27.3125H35.8762C38.0248 22.9042 39.9012 18.3348 41.4805 13.6313C31.1304 10.9924 20.4636 9.80545 9.7865 10.1047M14.375 27.3125L9.7865 10.1047M11.5 38.8125C11.5 39.1937 11.3485 39.5594 11.079 39.829C10.8094 40.0985 10.4437 40.25 10.0625 40.25C9.68125 40.25 9.31562 40.0985 9.04603 39.829C8.77645 39.5594 8.625 39.1937 8.625 38.8125C8.625 38.4313 8.77645 38.0656 9.04603 37.796C9.31562 37.5264 9.68125 37.375 10.0625 37.375C10.4437 37.375 10.8094 37.5264 11.079 37.796C11.3485 38.0656 11.5 38.4313 11.5 38.8125V38.8125ZM35.9375 38.8125C35.9375 39.1937 35.786 39.5594 35.5165 39.829C35.2469 40.0985 34.8812 40.25 34.5 40.25C34.1188 40.25 33.7531 40.0985 33.4835 39.829C33.2139 39.5594 33.0625 39.1937 33.0625 38.8125C33.0625 38.4313 33.2139 38.0656 33.4835 37.796C33.7531 37.5264 34.1188 37.375 34.5 37.375C34.8812 37.375 35.2469 37.5264 35.5165 37.796C35.786 38.0656 35.9375 38.4313 35.9375 38.8125V38.8125Z" stroke="#FDFCFC" stroke-width="1.5" stroke-linecap="round" stroke-linejoin="round"/>
</svg>
